<svg xmlns="http://www.w3.org/2000/svg" width="278.485" height="30.496" viewBox="0 0 278.485 30.496">
  <g id="Group_5256" data-name="Group 5256" transform="translate(-84.066 -115.539)">
    <g id="Group_5251" data-name="Group 5251" transform="translate(84.066 115.539)">
      <path id="Path_2890" data-name="Path 2890" d="M84.066,115.539H90.9L105.16,133.4l14.263-17.86h7.061V145.9h-7.246V124.826L105.345,142.24H103.96L90.528,125.183V145.9H84.066Z" transform="translate(-84.066 -115.539)" fill="#056839"/>
      <g id="Group_5250" data-name="Group 5250" transform="translate(49.851)">
        <rect id="Rectangle_2042" data-name="Rectangle 2042" width="29.804" height="5.581" transform="translate(12.823 24.915)" fill="#056839"/>
        <rect id="Rectangle_2043" data-name="Rectangle 2043" width="29.804" height="5.403" transform="translate(12.823)" fill="#056839"/>
        <rect id="Rectangle_2044" data-name="Rectangle 2044" width="5.581" height="30.496" transform="translate(4.04)" fill="#ed1c24"/>
        <rect id="Rectangle_2045" data-name="Rectangle 2045" width="42.627" height="5.581" transform="translate(0 12.399)" fill="#ed1c24"/>
      </g>
      <path id="Path_2891" data-name="Path 2891" d="M183.738,115.539h21.233a24.959,24.959,0,0,1,8.746,1.317,15.313,15.313,0,0,1,5.563,3.416,11.863,11.863,0,0,1,2.93,4.755,17.482,17.482,0,0,1,.854,5.38A16.444,16.444,0,0,1,221.7,137.4a13.073,13.073,0,0,1-3.762,4.822,15.656,15.656,0,0,1-5.724,2.791,27.859,27.859,0,0,1-7.246.893H183.738Zm19.2,24.781q1.661,0,3.785-.179a10.845,10.845,0,0,0,3.992-1.116,8.058,8.058,0,0,0,3.139-2.88,9.967,9.967,0,0,0,1.269-5.47q0-4.866-2.377-7.3t-7.778-2.433H190.985V140.32Z" transform="translate(-83.828 -115.539)" fill="#056839"/>
      <path id="Path_2892" data-name="Path 2892" d="M230.385,115.539h7.247V145.9h-7.247Z" transform="translate(-83.716 -115.539)" fill="#056839"/>
      <path id="Path_2893" data-name="Path 2893" d="M272.4,126.7v-5.983H252.277v19.825H272.4v-6.609l7.2,1.474v4.51a6.818,6.818,0,0,1-.648,3.215,4.321,4.321,0,0,1-1.753,1.808,7.168,7.168,0,0,1-2.585.782,26.351,26.351,0,0,1-3.138.178H251.585a8.426,8.426,0,0,1-3.255-.536,4.927,4.927,0,0,1-2.008-1.474,5.335,5.335,0,0,1-1.014-2.187,12.107,12.107,0,0,1-.278-2.634v-16.7a10.107,10.107,0,0,1,.484-3.416,4.578,4.578,0,0,1,1.454-2.076,5.683,5.683,0,0,1,2.446-1.049,18.151,18.151,0,0,1,3.462-.291h18.37a18.042,18.042,0,0,1,4.362.424,5.67,5.67,0,0,1,2.492,1.228,3.879,3.879,0,0,1,1.132,1.9,9.935,9.935,0,0,1,.277,2.434v4.2Z" transform="translate(-83.681 -115.539)" fill="#056839"/>
      <path id="Path_2894" data-name="Path 2894" d="M308.813,145.9h-7.247V120.718H286.934v-5.179h36.233v5.179H308.813Z" transform="translate(-83.581 -115.539)" fill="#056839"/>
      <path id="Path_2895" data-name="Path 2895" d="M326.126,145.9H319.11l17.816-30.362h6.922l18.14,30.362H354l-3.785-6.429H329.771Zm6.738-11.967h14.308l-7.153-12.145Z" transform="translate(-83.504 -115.539)" fill="#056839"/>
    </g>
  </g>
</svg>
